# xmcd
#
# Track frame offsets:
# 150
# 35044
# 56302
# 80714
# 100334
# 118761
# 147901
#
# Disc length: 2276 seconds
#
#
# Revision: 0
# Processed by: cddbd v1.5.2PL0 Copyright (c) Steve Scherf et al.
# Submitted via: FreeRIP 2.941 
#
DISCID=5f08e207
DTITLE=DEÁK  BILL  GYULA - ROSSZ VÉR
DYEAR=1984
DGENRE=Blues
TTITLE0=Rossz vér
TTITLE1=Õrülj meg, kicsi!
TTITLE2=Ne szeress engem!
TTITLE3=Mindenem a tévé
TTITLE4=A felszarvazottak balladája
TTITLE5=Középeurópai hobo blues III.
TTITLE6=Ez a helyzet
EXTD=
EXTT0=
EXTT1=
EXTT2=
EXTT3=
EXTT4=
EXTT5=
EXTT6=
PLAYORDER=
